<svg xmlns="http://www.w3.org/2000/svg" xmlns:xlink="http://www.w3.org/1999/xlink" viewBox="0,0,256,256" width="50px" height="50px"><g fill="#ffffff" fill-rule="nonzero" stroke="none" stroke-width="1" stroke-linecap="butt" stroke-linejoin="miter" stroke-miterlimit="10" stroke-dasharray="" stroke-dashoffset="0" font-family="none" font-weight="none" font-size="none" text-anchor="none" style="mix-blend-mode: normal"><g transform="scale(5.12,5.12)"><path d="M25,2c-12.6907,0 -23,10.3093 -23,23c0,12.69071 10.3093,23 23,23c12.69071,0 23,-10.30929 23,-23c0,-12.6907 -10.30929,-23 -23,-23zM25,4c11.60982,0 21,9.39018 21,21c0,11.60982 -9.39018,21 -21,21c-11.60982,0 -21,-9.39018 -21,-21c0,-11.60982 9.39018,-21 21,-21zM37.03906,10.99023c-0.2941,-0.00848 -0.57702,0.11297 -0.77344,0.33203l-10.08203,10.92187c-0.37389,-0.16083 -0.77659,-0.24389 -1.18359,-0.24414c-1.65685,0 -3,1.34315 -3,3c0,1.65685 1.34315,3 3,3c0.16752,0.00031 0.33477,-0.01341 0.5,-0.04102l3.625,6.52734c0.17372,0.31266 0.50106,0.50888 0.85869,0.51473c0.35763,0.00585 0.69122,-0.17956 0.87507,-0.48637c0.18385,-0.30681 0.19004,-0.68841 0.01623,-1.00102l-3.62891,-6.5293c0.48474,-0.54747 0.75284,-1.25314 0.75391,-1.98437c-0.00023,-0.48813 -0.11957,-0.96883 -0.34766,-1.40039l10.08203,-10.92188c0.27102,-0.28603 0.34883,-0.70455 0.19871,-1.06887c-0.15012,-0.36433 -0.50017,-0.60655 -0.89402,-0.61863z"></path></g></g></svg>