<?xml version="1.0" encoding="UTF-8" standalone="no"?>
<svg
   width="16"
   height="16"
   viewBox="0 0 16 16"
   fill="none"
   version="1.1"
   id="svg4"
   sodipodi:docname="file-open.svg"
   inkscape:version="1.1.2 (0a00cf5339, 2022-02-04)"
   xmlns:inkscape="http://www.inkscape.org/namespaces/inkscape"
   xmlns:sodipodi="http://sodipodi.sourceforge.net/DTD/sodipodi-0.dtd"
   xmlns="http://www.w3.org/2000/svg"
   xmlns:svg="http://www.w3.org/2000/svg">
  <defs
     id="defs8" />
  <sodipodi:namedview
     id="namedview6"
     pagecolor="#ffffff"
     bordercolor="#666666"
     borderopacity="1.0"
     inkscape:pageshadow="2"
     inkscape:pageopacity="0.0"
     inkscape:pagecheckerboard="0"
     showgrid="false"
     inkscape:zoom="22.627417"
     inkscape:cx="16.970563"
     inkscape:cy="8.6178639"
     inkscape:window-width="1920"
     inkscape:window-height="1008"
     inkscape:window-x="960"
     inkscape:window-y="0"
     inkscape:window-maximized="1"
     inkscape:current-layer="svg4" />
  <path
     fill-rule="evenodd"
     clip-rule="evenodd"
     d="m 10.5702,1.14 3.28,3.3 0.15,0.36 v 9.7 l -0.5,0.5 H 2.50024 l -0.5,-0.5 v -13 l 0.5,-0.5 H 10.2202 Z M 10.0002,5 h 3 l -3,-3 z M 3.00024,2 V 14 L 13.054013,14.040108 13.0002,6 H 9.50024 l -0.5,-0.5 V 2 Z M 11.0002,7 H 5.00024 V 8 H 11.0002 Z M 5.00024,9 h 5.99996 v 1 H 5.00024 Z m 6.057296,1.547781 -6.0528992,-0.07813 0.055685,0.49286 5.0824612,0.03921 z"
     fill="#424242"
     id="path2"
     sodipodi:nodetypes="cccccccccccccccccccccccccccccccccccccc" />
  <path
     fill-rule="evenodd"
     clip-rule="evenodd"
     d="M 8.8326356,7.5696099 C 9.5920647,7.0621847 10.484954,6.7913393 11.398278,6.7913393 c 1.224346,0.0015 2.39801,0.4885261 3.263769,1.3542385 0.865643,0.8657122 1.352726,2.0394102 1.354227,3.2637552 0,0.913324 -0.270845,1.806214 -0.778248,2.565643 -0.507517,0.759429 -1.228733,1.351341 -2.072556,1.700808 -0.843824,0.349582 -1.772387,0.441018 -2.668163,0.262763 C 9.6015316,15.760408 8.7786859,15.320544 8.1328478,14.674718 7.4870096,14.028891 7.0471803,13.20608 6.8689949,12.310304 6.6908099,11.414413 6.782269,10.485965 7.1317935,9.6421423 7.481318,8.7982737 8.0732179,8.0770468 8.8326356,7.5696099 Z M 11.292872,13.330073 14.047854,9.6565735 13.124255,8.9639212 10.726591,12.160912 9.2237796,10.958617 8.5025298,11.860165 10.470407,13.43444 Z"
     fill="#388a34"
     id="path4"
     style="stroke-width:1.1545" />
  <g
     inkscape:groupmode="layer"
     id="layer2"
     inkscape:label="sample2" />
  <g
     inkscape:groupmode="layer"
     id="layer1"
     inkscape:label="sample" />
</svg>
